{"title":"Dablova past AKA The Devil's Trap (F. Vlacil, 1962)","uid":7562343,"size":1438505687,"categoryP":"video","categoryS":"movies","magnet":"?xt=urn:btih:37a0ac37a1ce6e1de0566dce6aa782bce358dc97&amp;dn=Dablova+past+AKA+The+Devil%27s+Trap+%28F.+Vlacil%2C+1962%29&amp;tr=udp%3A%2F%2Ftracker.openbittorrent.com%3A80&amp;tr=udp%3A%2F%2Fopen.demonii.com%3A1337&amp;tr=udp%3A%2F%2Ftracker.coppersurfer.tk%3A6969&amp;tr=udp%3A%2F%2Fexodus.desync.com%3A6969","seeders":0,"leechers":3,"uploader":"moonflux","files":-1,"time":1345772752,"description":"Source\tdvdrip\nRip Specs\tGeneral\nComplete name : D:DC++ downloadsDablova past AKA The Devil's Trap (F. Vlacil, 1962).avi\nFormat : AVI\nFormat/Info : Audio Video Interleave\nFile size : 1.16 GiB\nDuration : 1h 25mn\nOverall bit rate : 1 933 Kbps\nWriting application : VirtualDubMod 1.5.10.2 (build 2540/release)\nWriting library : VirtualDubMod build 2540/release\n\nVideo\nID : 0\nFormat : MPEG-4 Visual\nFormat profile : Advanced Simple@L5\nFormat settings, BVOP : Yes\nFormat settings, QPel : No\nFormat settings, GMC : No warppoints\nFormat settings, Matrix : Default (MPEG)\nCodec ID : XVID\nCodec ID/Hint : XviD\nDuration : 1h 25mn\nBit rate : 1 795 Kbps\nWidth : 640 pixels\nHeight : 480 pixels\nDisplay aspect ratio : 4:3\nFrame rate : 25.000 fps\nColor space : YUV\nChroma subsampling : 4:2:0\nBit depth : 8 bits\nScan type : Progressive\nCompression mode : Lossy\nBits/(Pixel*Frame) : 0.234\nStream size : 1.08 GiB (93%)\nWriting library : XviD 58\n\nAudio\nID : 1\nFormat : MPEG Audio\nFormat version : Version 1\nFormat profile : Layer 3\nMode : Joint stereo\nMode extension : MS Stereo\nCodec ID : 55\nCodec ID/Hint : MP3\nDuration : 1h 25mn\nBit rate mode : Constant\nBit rate : 128 Kbps\nChannel(s) : 2 channels\nSampling rate : 48.0 KHz\nCompression mode : Lossy\nStream size : 78.5 MiB (7%)\nAlignment : Aligned on interleaves\nInterleave, duration : 40 ms (1.00 video frame)\nInterleave, preload duration : 504 ms\n\nExtras too - 2 small interview with czech subs.","torrent":{"xt":"urn:btih:37a0ac37a1ce6e1de0566dce6aa782bce358dc97","amp;dn":"Dablova+past+AKA+The+Devil%27s+Trap+%28F.+Vlacil%2C+1962%29","amp;tr":["udp%3A%2F%2Ftracker.openbittorrent.com%3A80","udp%3A%2F%2Fopen.demonii.com%3A1337","udp%3A%2F%2Ftracker.coppersurfer.tk%3A6969","udp%3A%2F%2Fexodus.desync.com%3A6969"],"infoHash":"37a0ac37a1ce6e1de0566dce6aa782bce358dc97","infoHashBuffer":{"type":"Buffer","data":[55,160,172,55,161,206,110,29,224,86,109,206,106,167,130,188,227,88,220,151]},"announce":[],"urlList":[]}}